<?xml version="1.0" encoding="UTF-8" standalone="no"?>
<!-- Created with Inkscape (http://www.inkscape.org/) -->

<svg
   width="41mm"
   height="41mm"
   viewBox="0 0 41 41"
   version="1.1"
   id="svg1"
   inkscape:version="1.4 (e7c3feb100, 2024-10-09)"
   sodipodi:docname="favicon.svg"
   xml:space="preserve"
   inkscape:export-filename="favicon.png"
   inkscape:export-xdpi="79.300003"
   inkscape:export-ydpi="79.300003"
   xmlns:inkscape="http://www.inkscape.org/namespaces/inkscape"
   xmlns:sodipodi="http://sodipodi.sourceforge.net/DTD/sodipodi-0.dtd"
   xmlns:xlink="http://www.w3.org/1999/xlink"
   xmlns="http://www.w3.org/2000/svg"
   xmlns:svg="http://www.w3.org/2000/svg"><sodipodi:namedview
     id="namedview1"
     pagecolor="#505050"
     bordercolor="#ffffff"
     borderopacity="1"
     inkscape:showpageshadow="0"
     inkscape:pageopacity="0"
     inkscape:pagecheckerboard="1"
     inkscape:deskcolor="#505050"
     inkscape:document-units="mm"
     inkscape:zoom="1.2442817"
     inkscape:cx="-44.604047"
     inkscape:cy="-47.015077"
     inkscape:window-width="1893"
     inkscape:window-height="1009"
     inkscape:window-x="0"
     inkscape:window-y="0"
     inkscape:window-maximized="1"
     inkscape:current-layer="layer1" /><defs
     id="defs1"><linearGradient
       id="swatch26"
       inkscape:swatch="solid"><stop
         style="stop-color:#ebead8;stop-opacity:1;"
         offset="0"
         id="stop26" /></linearGradient><rect
       x="597.30408"
       y="41.193382"
       width="580.5849"
       height="123.41288"
       id="rect4" /><linearGradient
       id="linearGradient18"
       inkscape:collect="always"><stop
         style="stop-color:#f4d2a0;stop-opacity:1;"
         offset="0.75999999"
         id="stop21" /><stop
         style="stop-color:#e6b053;stop-opacity:1;"
         offset="0.87799394"
         id="stop22" /><stop
         style="stop-color:#e6b053;stop-opacity:0.09411765;"
         offset="1"
         id="stop20" /></linearGradient><linearGradient
       id="linearGradient10"
       inkscape:swatch="gradient"><stop
         style="stop-color:#fcf8b2;stop-opacity:1;"
         offset="0"
         id="stop11" /><stop
         style="stop-color:#fcf8b2;stop-opacity:1;"
         offset="0.69"
         id="stop13" /><stop
         style="stop-color:#c07921;stop-opacity:1;"
         offset="0.89999998"
         id="stop14" /><stop
         style="stop-color:#c07921;stop-opacity:0.29411766;"
         offset="1"
         id="stop12" /></linearGradient><inkscape:path-effect
       effect="powerclip"
       message=""
       id="path-effect4"
       is_visible="true"
       lpeversion="1"
       inverse="true"
       flatten="false"
       hide_clip="false" /><clipPath
       clipPathUnits="userSpaceOnUse"
       id="clipPath3"><path
         id="path4"
         style="display:none;stroke-width:0.257227"
         d="M 87.000001,50.000001 A 50.000001,50.000001 0 0 1 37,100 50.000001,50.000001 0 0 1 -13,50.000001 50.000001,50.000001 0 0 1 37,0 50.000001,50.000001 0 0 1 87.000001,50.000001 Z" /><path
         id="lpe_path-effect4"
         style="stroke-width:0.257227"
         class="powerclip"
         d="M -5,-5 H 105 V 105 H -5 Z M 87.000001,50.000001 A 50.000001,50.000001 0 0 0 37,0 50.000001,50.000001 0 0 0 -13,50.000001 50.000001,50.000001 0 0 0 37,100 50.000001,50.000001 0 0 0 87.000001,50.000001 Z" /></clipPath><radialGradient
       inkscape:collect="always"
       xlink:href="#linearGradient18"
       id="radialGradient20"
       cx="50"
       cy="50"
       fx="50"
       fy="50"
       r="50"
       gradientUnits="userSpaceOnUse" /></defs><g
     inkscape:label="Layer 1"
     inkscape:groupmode="layer"
     id="layer1"><rect
       style="display:inline;fill:#081319;fill-opacity:1;stroke-width:0.0719782"
       id="rect1"
       width="41"
       height="41"
       x="0"
       y="-3.469447e-18" /><path
       id="path1"
       style="fill:url(#radialGradient20);stroke:none;stroke-width:0.220688;stroke-opacity:1"
       d="M 100,50 A 50,50 0 0 1 50,100 50,50 0 0 1 0,50 50,50 0 0 1 50,0 50,50 0 0 1 100,50 Z"
       clip-path="url(#clipPath3)"
       inkscape:path-effect="#path-effect4"
       inkscape:original-d="M 100,50 A 50,50 0 0 1 50,100 50,50 0 0 1 0,50 50,50 0 0 1 50,0 50,50 0 0 1 100,50 Z"
       transform="matrix(-0.28991378,-0.28991378,0.28991378,-0.28991378,20.499999,49.491377)" /><path
       d="m 665.17669,125.85407 q -4.032,0 -5.376,-2.592 -1.344,-2.592 -1.344,-5.856 0,-5.28 1.92,-10.944 1.92,-5.664 4.32,-11.328005 -3.072,5.184005 -6.72,10.272005 -3.552,5.088 -7.488,9.312 -3.936,4.128 -8.256,6.624 -3.36,1.92 -6.528,2.784 -3.072,0.96 -5.76,0.96 -3.552,0 -6.048,-1.44 -2.4,-1.536 -3.456,-3.936 -0.96,-2.496 -0.96,-5.184 0,-1.632 0.288,-3.168 0.864,-5.376 3.072,-10.176 2.304,-4.800005 5.184,-9.312005 2.976,-4.512 5.856,-9.024 1.536,-2.4 3.552,-6.144 2.016,-3.744 3.456,-7.872 1.536,-4.128 1.536,-7.68 0,-4.8 -2.592,-6.624 -2.496,-1.92 -5.952,-1.92 -4.224,0 -8.64,1.728 -4.32,1.728 -8.064,4.512 -3.744,2.784 -6.24,6.048 -2.496,3.264 -4.032,6.816 -1.536,3.456 -1.536,6.528 0,2.976 1.632,5.28 1.728,2.208 5.472,3.168 0.864,0.192 1.824,0.288 0.96,0.096 1.824,0.096 2.88,0 4.704,-0.672 0.096,-0.096 0.288,-0.096 0.288,0 0.384,0.384 0.096,0.384 -0.288,0.576 -1.92,0.96 -6.048,0.96 -1.824,0 -3.552,-0.288 -4.992,-0.768 -7.296,-3.648 -2.304,-2.88 -2.304,-6.72 0,-6.816 5.856,-14.016 2.688,-3.264 6.912,-5.952 4.32,-2.784 9.216,-4.512 4.896,-1.728 9.312,-1.728 3.36,0 6.144,1.152 2.784,1.056 4.608,3.744 1.728,2.592 1.728,6.336 0,3.552 -1.344,7.68 -1.248,4.032 -3.168,7.872 -1.824,3.84 -3.648,6.912 -2.208,3.744 -4.704,7.968 -2.4,4.224 -4.512,8.448005 -2.016,4.128 -3.264,7.968 -1.152,3.84 -0.96,7.008 0.288,4.128 2.112,5.664 1.824,1.632 4.32,1.632 2.496,0 5.184,-1.152 2.784,-1.056 5.184,-2.496 3.744,-2.304 8.064,-6.72 4.32,-4.416 7.488,-9.216 4.8,-7.200005 9.312,-14.496005 4.608,-7.392 9.408,-14.688 4.224,-6.432 8.928,-11.712 4.8,-5.28 10.176,-7.968 1.44,-0.768 2.976,-1.152 1.632,-0.48 3.072,-0.48 2.112,0 3.744,1.152 1.728,1.152 2.4,4.032 0.096,0.288 0.096,0.864 0,0.672 -0.288,0.864 -0.288,0.192 -0.48,-0.288 -0.576,-2.592 -2.592,-3.648 -2.016,-1.056 -4.224,-1.056 -0.96,0 -1.824,0.192 -0.768,0.192 -1.536,0.48 -3.552,1.536 -7.488,5.952 -3.84,4.416 -7.68,10.752 -3.84,6.24 -7.2,13.44 -3.36,7.104 -5.76,14.112005 -2.304,7.008 -3.168,12.864 -0.096,0.672 -0.288,1.92 -0.096,1.152 -0.096,2.496 0,1.824 0.576,3.36 0.672,1.536 2.592,1.536 2.016,0 4.224,-1.824 2.208,-1.92 4.128,-4.608 2.016,-2.688 3.648,-5.376 1.632,-2.688 2.496,-4.416 0.576,-1.152 1.344,-1.152 0.672,0 0.096,1.056 -1.152,2.112 -2.976,5.376 -1.824,3.168 -4.224,6.432 -2.304,3.264 -5.088,5.472 -2.688,2.208 -5.664,2.208 z"
       id="text2"
       style="font-size:96px;font-family:MonteCarlo;-inkscape-font-specification:MonteCarlo;white-space:pre;fill:#f8e1c0;stroke-width:1.32283"
       transform="matrix(0.26457576,0,0,0.26718363,-149.2769,-2.2859906)"
       aria-label="U" /></g></svg>
