<?xml version="1.0" encoding="UTF-8" standalone="no"?>
<!-- Created with Inkscape (http://www.inkscape.org/) -->

<svg
   width="143mm"
   height="40mm"
   viewBox="0 0 143 40"
   version="1.1"
   id="svg1"
   inkscape:version="1.4 (e7c3feb100, 2024-10-09)"
   sodipodi:docname="logo.svg"
   xml:space="preserve"
   xmlns:inkscape="http://www.inkscape.org/namespaces/inkscape"
   xmlns:sodipodi="http://sodipodi.sourceforge.net/DTD/sodipodi-0.dtd"
   xmlns:xlink="http://www.w3.org/1999/xlink"
   xmlns="http://www.w3.org/2000/svg"
   xmlns:svg="http://www.w3.org/2000/svg"><sodipodi:namedview
     id="namedview1"
     pagecolor="#505050"
     bordercolor="#ffffff"
     borderopacity="1"
     inkscape:showpageshadow="0"
     inkscape:pageopacity="0"
     inkscape:pagecheckerboard="1"
     inkscape:deskcolor="#505050"
     inkscape:document-units="mm"
     inkscape:zoom="1.2442817"
     inkscape:cx="182.03273"
     inkscape:cy="50.229783"
     inkscape:window-width="1893"
     inkscape:window-height="1009"
     inkscape:window-x="0"
     inkscape:window-y="0"
     inkscape:window-maximized="1"
     inkscape:current-layer="layer1" /><defs
     id="defs1"><linearGradient
       id="swatch26"
       inkscape:swatch="solid"><stop
         style="stop-color:#ebead8;stop-opacity:1;"
         offset="0"
         id="stop26" /></linearGradient><linearGradient
       id="linearGradient11"
       inkscape:collect="always"><stop
         style="stop-color:#f4d2a0;stop-opacity:1;"
         offset="0"
         id="stop17" /><stop
         style="stop-color:#f4d2a0;stop-opacity:0.34509805;"
         offset="1"
         id="stop16" /></linearGradient><linearGradient
       id="linearGradient9"
       inkscape:collect="always"><stop
         style="stop-color:#af5612;stop-opacity:0;"
         offset="0"
         id="stop8" /><stop
         style="stop-color:#f4d2a0;stop-opacity:1;"
         offset="1"
         id="stop9" /></linearGradient><linearGradient
       id="linearGradient6"
       inkscape:collect="always"><stop
         style="stop-color:#af5612;stop-opacity:0;"
         offset="0"
         id="stop6" /><stop
         style="stop-color:#f4d2a0;stop-opacity:1;"
         offset="1"
         id="stop7" /></linearGradient><rect
       x="597.30408"
       y="41.193382"
       width="580.5849"
       height="123.41288"
       id="rect4" /><linearGradient
       id="linearGradient18"
       inkscape:collect="always"><stop
         style="stop-color:#f4d2a0;stop-opacity:1;"
         offset="0.75999999"
         id="stop21" /><stop
         style="stop-color:#e6b053;stop-opacity:1;"
         offset="0.87799394"
         id="stop22" /><stop
         style="stop-color:#e6b053;stop-opacity:0.09411765;"
         offset="1"
         id="stop20" /></linearGradient><linearGradient
       id="linearGradient10"
       inkscape:swatch="gradient"><stop
         style="stop-color:#fcf8b2;stop-opacity:1;"
         offset="0"
         id="stop11" /><stop
         style="stop-color:#fcf8b2;stop-opacity:1;"
         offset="0.69"
         id="stop13" /><stop
         style="stop-color:#c07921;stop-opacity:1;"
         offset="0.89999998"
         id="stop14" /><stop
         style="stop-color:#c07921;stop-opacity:0.29411766;"
         offset="1"
         id="stop12" /></linearGradient><inkscape:path-effect
       effect="powerclip"
       message=""
       id="path-effect4"
       is_visible="true"
       lpeversion="1"
       inverse="true"
       flatten="false"
       hide_clip="false" /><clipPath
       clipPathUnits="userSpaceOnUse"
       id="clipPath3"><path
         id="path4"
         style="display:none;stroke-width:0.257227"
         d="M 87.000001,50.000001 A 50.000001,50.000001 0 0 1 37,100 50.000001,50.000001 0 0 1 -13,50.000001 50.000001,50.000001 0 0 1 37,0 50.000001,50.000001 0 0 1 87.000001,50.000001 Z" /><path
         id="lpe_path-effect4"
         style="stroke-width:0.257227"
         class="powerclip"
         d="M -5,-5 H 105 V 105 H -5 Z M 87.000001,50.000001 A 50.000001,50.000001 0 0 0 37,0 50.000001,50.000001 0 0 0 -13,50.000001 50.000001,50.000001 0 0 0 37,100 50.000001,50.000001 0 0 0 87.000001,50.000001 Z" /></clipPath><radialGradient
       inkscape:collect="always"
       xlink:href="#linearGradient18"
       id="radialGradient20"
       cx="50"
       cy="50"
       fx="50"
       fy="50"
       r="50"
       gradientUnits="userSpaceOnUse" /><linearGradient
       inkscape:collect="always"
       xlink:href="#linearGradient9"
       id="linearGradient7"
       x1="43.175835"
       y1="63.599548"
       x2="264.13342"
       y2="63.599548"
       gradientUnits="userSpaceOnUse"
       gradientTransform="matrix(0.27197612,0,0,0.39999998,13.209608,29.06022)" /><linearGradient
       inkscape:collect="always"
       xlink:href="#linearGradient6"
       id="linearGradient8"
       gradientUnits="userSpaceOnUse"
       gradientTransform="matrix(0.27197614,0,0,0.39999998,-173.19038,29.060189)"
       x1="43.175835"
       y1="63.599548"
       x2="264.13342"
       y2="63.599548" /><radialGradient
       inkscape:collect="always"
       xlink:href="#linearGradient11"
       id="radialGradient16"
       cx="91.337799"
       cy="58.041946"
       fx="91.337799"
       fy="58.041946"
       r="1.4450278"
       gradientUnits="userSpaceOnUse"
       gradientTransform="matrix(0.83043384,0,0,0.83043384,17.350001,6.300001)" /></defs><g
     inkscape:label="Layer 1"
     inkscape:groupmode="layer"
     id="layer1"><rect
       style="display:none;fill:#081319;fill-opacity:1;stroke-width:0.132775"
       id="rect1"
       width="143"
       height="40"
       x="0"
       y="-3.469447e-18" /><path
       id="path1"
       style="fill:url(#radialGradient20);stroke:none;stroke-width:0.220688;stroke-opacity:1"
       d="M 100,50 A 50,50 0 0 1 50,100 50,50 0 0 1 0,50 50,50 0 0 1 50,0 50,50 0 0 1 100,50 Z"
       clip-path="url(#clipPath3)"
       inkscape:path-effect="#path-effect4"
       inkscape:original-d="M 100,50 A 50,50 0 0 1 50,100 50,50 0 0 1 0,50 50,50 0 0 1 50,0 50,50 0 0 1 100,50 Z"
       transform="matrix(-0.29223096,-0.29223096,0.29223096,-0.29223096,20.663848,49.886944)" /><path
       d="m 665.17669,125.85407 q -4.032,0 -5.376,-2.592 -1.344,-2.592 -1.344,-5.856 0,-5.28 1.92,-10.944 1.92,-5.664 4.32,-11.328005 -3.072,5.184005 -6.72,10.272005 -3.552,5.088 -7.488,9.312 -3.936,4.128 -8.256,6.624 -3.36,1.92 -6.528,2.784 -3.072,0.96 -5.76,0.96 -3.552,0 -6.048,-1.44 -2.4,-1.536 -3.456,-3.936 -0.96,-2.496 -0.96,-5.184 0,-1.632 0.288,-3.168 0.864,-5.376 3.072,-10.176 2.304,-4.800005 5.184,-9.312005 2.976,-4.512 5.856,-9.024 1.536,-2.4 3.552,-6.144 2.016,-3.744 3.456,-7.872 1.536,-4.128 1.536,-7.68 0,-4.8 -2.592,-6.624 -2.496,-1.92 -5.952,-1.92 -4.224,0 -8.64,1.728 -4.32,1.728 -8.064,4.512 -3.744,2.784 -6.24,6.048 -2.496,3.264 -4.032,6.816 -1.536,3.456 -1.536,6.528 0,2.976 1.632,5.28 1.728,2.208 5.472,3.168 0.864,0.192 1.824,0.288 0.96,0.096 1.824,0.096 2.88,0 4.704,-0.672 0.096,-0.096 0.288,-0.096 0.288,0 0.384,0.384 0.096,0.384 -0.288,0.576 -1.92,0.96 -6.048,0.96 -1.824,0 -3.552,-0.288 -4.992,-0.768 -7.296,-3.648 -2.304,-2.88 -2.304,-6.72 0,-6.816 5.856,-14.016 2.688,-3.264 6.912,-5.952 4.32,-2.784 9.216,-4.512 4.896,-1.728 9.312,-1.728 3.36,0 6.144,1.152 2.784,1.056 4.608,3.744 1.728,2.592 1.728,6.336 0,3.552 -1.344,7.68 -1.248,4.032 -3.168,7.872 -1.824,3.84 -3.648,6.912 -2.208,3.744 -4.704,7.968 -2.4,4.224 -4.512,8.448005 -2.016,4.128 -3.264,7.968 -1.152,3.84 -0.96,7.008 0.288,4.128 2.112,5.664 1.824,1.632 4.32,1.632 2.496,0 5.184,-1.152 2.784,-1.056 5.184,-2.496 3.744,-2.304 8.064,-6.72 4.32,-4.416 7.488,-9.216 4.8,-7.200005 9.312,-14.496005 4.608,-7.392 9.408,-14.688 4.224,-6.432 8.928,-11.712 4.8,-5.28 10.176,-7.968 1.44,-0.768 2.976,-1.152 1.632,-0.48 3.072,-0.48 2.112,0 3.744,1.152 1.728,1.152 2.4,4.032 0.096,0.288 0.096,0.864 0,0.672 -0.288,0.864 -0.288,0.192 -0.48,-0.288 -0.576,-2.592 -2.592,-3.648 -2.016,-1.056 -4.224,-1.056 -0.96,0 -1.824,0.192 -0.768,0.192 -1.536,0.48 -3.552,1.536 -7.488,5.952 -3.84,4.416 -7.68,10.752 -3.84,6.24 -7.2,13.44 -3.36,7.104 -5.76,14.112005 -2.304,7.008 -3.168,12.864 -0.096,0.672 -0.288,1.92 -0.096,1.152 -0.096,2.496 0,1.824 0.576,3.36 0.672,1.536 2.592,1.536 2.016,0 4.224,-1.824 2.208,-1.92 4.128,-4.608 2.016,-2.688 3.648,-5.376 1.632,-2.688 2.496,-4.416 0.576,-1.152 1.344,-1.152 0.672,0 0.096,1.056 -1.152,2.112 -2.976,5.376 -1.824,3.168 -4.224,6.432 -2.304,3.264 -5.088,5.472 -2.688,2.208 -5.664,2.208 z m 34.36792,-4.32 q -2.784,0 -4.416,-1.728 -1.536,-1.728 -1.536,-4.32 0,-1.248 0.48,-2.88 1.344,-4.224 4.224,-8.352 2.976,-4.224 4.896,-8.352005 0.672,-1.344 0.672,-2.4 0,-1.056 -0.672,-1.536 -0.576,-0.576 -1.44,-0.576 -1.248,0 -3.168,1.056 -1.824,0.96 -4.224,3.744 -1.44,1.728 -3.264,4.224005 -1.824,2.496 -2.976,4.512 -1.92,3.264 -3.456,6.624 -1.536,3.264 -2.688,6.048 -0.96,2.208 -2.304,2.88 -1.344,0.576 -2.592,0.48 -1.248,-0.096 -1.92,0 2.688,-5.28 5.28,-11.136 2.592,-5.856 4.416,-11.712005 0.864,-2.688 1.44,-5.184 0.576,-2.592 0.48,-3.36 v -0.192 q 0,-0.768 0.768,-0.384 1.248,0.672 1.728,2.016 0.48,1.248 0.48,2.88 0,1.824 -0.48,3.936 -0.48,2.016 -1.152,3.648005 1.248,-1.728005 2.688,-3.456005 1.44,-1.824 3.168,-3.456 2.016,-2.016 4.32,-3.456 2.304,-1.536 4.992,-1.536 2.592,0 3.744,1.152 1.248,1.152 1.248,3.072 0,2.016 -1.152,4.608 -1.248,2.976005 -3.072,5.952005 -1.728,2.976 -3.168,5.76 -0.288,0.576 -0.96,1.824 -0.576,1.152 -1.056,2.592 -0.192,0.672 -0.384,1.44 -0.192,0.672 -0.192,1.44 0,0.96 0.384,1.824 0.48,0.768 1.728,0.768 1.632,0 3.072,-1.056 1.536,-1.152 2.592,-2.4 2.208,-2.4 4.032,-5.28 1.92,-2.976 3.744,-6.24 0.288,-0.384 0.384,-0.384 0.384,0 0.384,0.864 0,0.576 -0.192,0.864 -1.728,3.168 -3.648,6.24 -1.92,2.976 -4.704,5.76 -1.248,1.248 -2.88,2.208 -1.632,0.96 -3.648,0.96 z m 17.18402,0.096 q -3.36,0 -4.8,-2.4 -1.44,-2.4 -1.44,-5.376 0,-2.112 0.576,-4.128 0.96,-3.36 2.4,-6.72 1.536,-3.456005 2.88,-6.528005 0.192,-0.48 0.672,-1.632 0.48,-1.248 0.576,-2.4 v -0.288 q 0,-0.768 -0.48,-1.152 -0.384,-0.384 -0.864,-0.384 -0.768,0 -1.248,0.384 -0.192,0.192 -0.48,0.192 -0.288,0 -0.288,-0.288 0,-0.864 0.96,-1.248 1.344,-0.672 2.784,-0.672 1.728,0 2.976,1.152 1.344,1.056 1.344,3.264 0,2.784 -1.248,5.568 -1.248,2.688005 -2.496,5.376005 -1.056,2.208 -2.112,4.608 -1.056,2.304 -1.536,4.416 -0.288,1.248 -0.288,2.496 0,1.536 0.768,2.688 0.768,1.056 2.688,1.056 2.496,0 4.704,-1.632 2.208,-1.632 4.032,-4.128 1.92,-2.496 3.264,-5.088 1.344,-2.688 2.016,-4.608 -0.096,-0.768 -0.288,-2.304 -0.192,-1.632 -0.192,-3.648005 0,-1.536 0.192,-3.168 0.192,-1.728 0.576,-3.456 0.288,-1.056 1.152,-2.688 0.864,-1.632 2.208,-1.632 1.056,-0.192 1.632,0.768 0.576,0.864 0.576,2.4 0,2.976 -1.152,7.008 -1.152,4.032005 -3.072,7.968005 -0.096,2.784 0.768,4.32 0.96,1.536 2.496,1.536 2.304,0 4.224,-2.496 2.016,-2.496 3.36,-5.28 0.672,-1.248 1.152,-1.248 0.288,0 0.288,0.384 0,0.672 -0.48,1.536 -0.96,1.92 -2.112,3.936 -1.056,1.92 -2.688,3.168 -1.536,1.248 -3.84,1.248 -2.016,0 -3.072,-1.344 -1.056,-1.344 -1.344,-3.168 -1.248,2.208 -2.592,4.224 -1.248,2.016 -2.496,3.456 -2.112,2.592 -4.8,4.32 -2.592,1.632 -5.856,1.632 z m 35.71198,0.096 q -5.568,0 -7.872,-2.88 -1.152,-1.248 -1.632,-2.976 -0.48,-1.728 -0.48,-3.552 0,-2.304 0.576,-4.608 0.576,-2.4 1.44,-4.416 1.344,-3.168 3.552,-6.336005 2.208,-3.264 5.28,-5.472 3.168,-2.208 6.912,-2.208 2.496,0 3.936,1.248 1.44,1.248 1.44,3.84 0,2.976 -1.824,6.048005 -1.824,2.976 -4.608,4.992 -2.784,2.016 -5.76,2.016 -2.688,0 -4.704,-1.92 -0.576,1.536 -0.96,3.456 -0.384,1.824 -0.384,3.744 0,2.976 1.152,5.184 1.248,2.208 4.416,2.208 2.304,0 4.416,-1.152 2.208,-1.248 3.936,-2.976 1.92,-2.016 3.648,-4.32 1.728,-2.304 3.36,-5.376 0.192,-0.288 0.288,-0.288 0.384,0 0.384,0.864 0,0.576 -0.384,1.248 -1.44,2.592 -3.36,5.28 -1.92,2.592 -3.936,4.512 -1.824,1.728 -3.936,2.784 -2.112,1.056 -4.896,1.056 z m -3.264,-17.664 q 0.672,0.96 1.536,1.44 0.96,0.384 1.92,0.384 2.304,0 4.8,-1.728 2.496,-1.824 4.032,-4.224005 0.672,-1.056 1.152,-2.784 0.576,-1.728 0.576,-3.264 0,-1.344 -0.576,-2.304 -0.48,-1.056 -2.016,-1.056 -1.728,0 -4.128,2.112 -2.304,2.112 -4.416,5.472 -0.672,1.152 -1.536,2.688005 -0.768,1.536 -1.344,3.264 z m 21.88791,17.472 q -2.688,0 -3.936,-1.728 -1.248,-1.824 -1.248,-4.416 0,-0.768 0.096,-1.536 0.192,-0.864 0.384,-1.728 1.056,-3.84 3.264,-8.544 2.304,-4.800005 4.416,-8.544005 1.248,-2.112 2.304,-2.976 1.056,-0.96 2.304,-1.344 1.248,-0.48 2.976,-1.056 0.48,-0.192 0.96,-0.288 0.48,-0.096 1.056,-0.192 -1.92,1.92 -3.936,4.608 -1.92,2.688 -4.224,7.392005 -1.248,2.496 -2.496,5.568 -1.152,3.072 -2.016,5.76 -0.864,2.688 -0.96,4.224 -0.096,1.824 0.48,2.592 0.576,0.768 1.536,0.768 1.632,0 3.072,-1.152 1.536,-1.152 2.688,-2.4 2.112,-2.4 3.936,-5.28 1.92,-2.88 3.744,-6.144 0.288,-0.384 0.48,-0.384 0.384,0 0.384,0.576 0,0.48 -0.192,0.768 -1.728,3.168 -3.648,6.336 -1.92,3.168 -4.704,5.952 -1.248,1.248 -2.976,2.208 -1.632,0.96 -3.744,0.96 z m 11.712,-37.728005 q -1.056,0 -1.824,-0.768 -0.672,-0.768 -0.672,-1.824 0,-1.344 1.056,-2.4 1.152,-1.056 2.496,-1.248 1.056,0 1.728,0.768 0.768,0.672 0.768,1.824 0,1.248 -1.056,2.496 -1.056,1.152 -2.496,1.152 z m 7.00809,37.728005 q -3.456,0 -4.8,-2.016 -1.344,-2.016 -1.344,-5.088 0,-3.168 0.96,-6.912 1.056,-3.744 2.4,-7.296 1.44,-3.552005 2.688,-6.240005 1.344,-2.688 1.824,-3.744 1.728,-3.648 4.224,-8.256 2.592,-4.608 5.76,-9.408 3.264,-4.8 6.816,-9.12 3.648,-4.32 7.488,-7.488 3.936,-3.168 7.776,-4.32 1.056,-0.288 1.92,-0.288 1.632,0 2.688,0.96 1.152,0.864 1.152,3.072 0,1.536 -0.768,3.84 -1.248,3.36 -4.224,7.488 -2.976,4.032 -7.008,8.448 -4.032,4.32 -8.544,8.544 -4.416,4.224 -8.64,7.872 -4.224,3.648 -7.488,6.24 -0.864,1.824 -1.632,3.552005 -0.672,1.728 -1.248,3.36 -0.288,0.864 -0.864,2.592 -0.576,1.728 -1.056,3.84 -0.48,2.112 -0.48,4.032 0,1.92 0.768,3.36 0.768,1.344 2.784,1.344 1.632,0 2.976,-1.056 1.44,-1.056 2.592,-2.304 4.032,-4.608 7.2,-10.656 0.384,-0.672 0.576,-0.672 0.192,0 0.192,0.576 0,0.864 -0.384,1.824 -1.824,3.36 -3.36,5.664 -1.44,2.304 -4.224,5.088 -1.248,1.248 -2.976,2.208 -1.632,0.96 -3.744,0.96 z m 3.936,-25.920005 q 2.976,-2.592 6.912,-6.144 3.936,-3.648 8.064,-7.776 4.128,-4.128 7.776,-8.256 3.744,-4.128 6.432,-7.776 2.784,-3.648 3.744,-6.336 0.864,-2.496 0.864,-3.84 0,-2.496 -2.208,-2.496 -1.248,0 -2.976,0.96 -1.728,0.864 -3.168,2.304 -2.4,2.304 -5.664,6.624 -3.168,4.224 -6.72,9.696 -3.552,5.472 -7.008,11.424 -3.36,5.952 -6.048,11.616 z m 19.10397,26.112005 q -5.568,0 -7.872,-2.88 -1.152,-1.248 -1.632,-2.976 -0.48,-1.728 -0.48,-3.552 0,-2.304 0.576,-4.608 0.576,-2.4 1.44,-4.416 1.344,-3.168 3.552,-6.336005 2.208,-3.264 5.28,-5.472 3.168,-2.208 6.912,-2.208 2.496,0 3.936,1.248 1.44,1.248 1.44,3.84 0,2.976 -1.824,6.048005 -1.824,2.976 -4.608,4.992 -2.784,2.016 -5.76,2.016 -2.688,0 -4.704,-1.92 -0.576,1.536 -0.96,3.456 -0.384,1.824 -0.384,3.744 0,2.976 1.152,5.184 1.248,2.208 4.416,2.208 2.304,0 4.416,-1.152 2.208,-1.248 3.936,-2.976 1.92,-2.016 3.648,-4.32 1.728,-2.304 3.36,-5.376 0.192,-0.288 0.288,-0.288 0.384,0 0.384,0.864 0,0.576 -0.384,1.248 -1.44,2.592 -3.36,5.28 -1.92,2.592 -3.936,4.512 -1.824,1.728 -3.936,2.784 -2.112,1.056 -4.896,1.056 z m -3.264,-17.664 q 0.672,0.96 1.536,1.44 0.96,0.384 1.92,0.384 2.304,0 4.8,-1.728 2.496,-1.824 4.032,-4.224005 0.672,-1.056 1.152,-2.784 0.576,-1.728 0.576,-3.264 0,-1.344 -0.576,-2.304 -0.48,-1.056 -2.016,-1.056 -1.728,0 -4.128,2.112 -2.304,2.112 -4.416,5.472 -0.672,1.152 -1.536,2.688005 -0.768,1.536 -1.344,3.264 z m 42.52791,17.568 q -3.264,0 -4.704,-2.208 -1.44,-2.304 -1.44,-5.664 0,-3.36 1.152,-6.624 l 0.96,-2.784 -3.552,5.472 q -1.344,2.112 -3.552,4.8 -2.112,2.592 -4.512,4.512 -3.072,2.496 -5.568,2.496 -2.4,0 -3.744,-2.016 -1.248,-2.016 -1.248,-5.088 0,-2.112 0.576,-4.224 1.44,-5.376 4.416,-9.792 2.976,-4.512005 7.488,-7.776005 1.92,-1.44 4.896,-2.304 2.976,-0.96 5.952,-0.96 1.152,0 2.304,0.192 1.152,0.192 2.112,0.48 0.768,-1.728 1.728,-3.84 1.056,-2.112 2.016,-4.128 1.056,-2.112 1.728,-3.456 1.92,-3.936 4.8,-9.408 2.88,-5.472 6.72,-10.176 2.976,-3.744 6.816,-6.528 3.936,-2.88 7.584,-2.88 2.208,0 3.264,1.344 1.152,1.344 1.152,3.264 0,1.728 -0.672,3.168 -1.536,3.456 -4.896,7.296 -3.264,3.84 -7.104,7.488 -3.744,3.552 -6.72,6.432 -2.496,2.4 -4.416,4.224 -1.92,1.728 -3.552,3.456 -1.632,1.728 -3.552,3.84 -2.112,4.8 -3.936,9.6 -1.728,4.800005 -2.88,8.928005 -1.056,4.128 -1.056,6.912 0,3.936 2.4,4.224 1.632,0 3.072,-1.056 1.44,-1.056 2.496,-2.304 2.208,-2.4 4.032,-5.28 1.824,-2.88 3.648,-6.144 0.288,-0.384 0.576,-0.384 0.384,0 0.384,0.576 0,0.48 -0.192,0.768 -1.728,3.168 -3.744,6.336 -1.92,3.168 -4.704,5.952 -1.248,1.248 -2.88,2.304 -1.632,0.96 -3.648,0.96 z m 7.968,-34.752005 q 2.208,-2.496 4.128,-4.416 1.92,-2.016 4.704,-4.896 2.688,-2.688 6.144,-6.336 3.552,-3.648 6.624,-7.392 3.168,-3.744 4.608,-6.624 1.152,-2.304 1.152,-3.744 0,-2.4 -2.4,-2.4 -2.976,0 -6.24,2.784 -3.168,2.688 -6.24,7.392 -2.592,4.032 -4.896,8.832 -2.304,4.704 -4.224,9.12 -1.92,4.416 -3.36,7.68 z m -27.168,31.776005 q 1.728,0 4.128,-2.304 2.496,-2.4 5.088,-5.856 2.688,-3.552 4.896,-6.912 0.672,-0.96 1.728,-3.168 1.152,-2.208005 2.4,-4.704005 1.248,-2.592 2.112,-4.512 -0.576,-0.192 -1.152,-0.192 -0.48,0 -1.056,0 -2.976,0 -5.952,1.632 -2.88,1.536 -5.184,4.128 -3.264,3.552005 -5.472,7.680005 -2.208,4.032 -3.072,7.104 -0.48,1.728 -0.48,3.552 0,1.44 0.384,2.496 0.48,1.056 1.632,1.056 z m 77.18416,12.096 q -7.2,0 -12.096,-2.496 -4.8,-2.4 -7.296,-6.528 -2.4,-4.032 -2.4,-9.024 0,-3.84 1.344,-7.872 1.44,-4.032 4.224,-7.968005 2.88,-3.936 7.104,-7.2 4.224,-3.264 9.216,-5.184 4.992,-2.016 9.888,-2.016 4.896,0 7.2,2.016 2.4,1.92 2.4,4.992 0,1.824 -0.864,4.032 -0.864,2.208 -2.688,4.416 -2.496,3.168005 -6.144,5.664005 -3.648,2.4 -7.776,3.84 -4.032,1.344 -8.064,1.344 -0.672,0 -1.248,0 -0.576,-0.096 -1.248,-0.192 -0.384,-0.096 -0.384,-0.48 0.096,-0.48 0.48,-0.384 3.936,0.288 8.352,-1.248 4.512,-1.536 8.544,-4.224 4.032,-2.688005 6.336,-5.856005 2.688,-3.744 2.688,-6.912 0,-2.304 -1.632,-3.84 -1.632,-1.632 -5.184,-1.632 -4.704,0 -9.12,2.016 -4.416,1.92 -8.256,5.088 -3.744,3.168 -6.432,6.912 -2.592,3.552005 -3.936,7.488005 -1.344,3.936 -1.344,7.584 0,4.224 1.92,7.872 1.92,3.552 5.856,5.664 3.936,2.208 10.08,2.208 6.816,0 12.384,-2.4 5.568,-2.304 9.6,-6.336 4.032,-4.128 6.144,-9.312 2.208,-5.28 2.208,-11.136005 0,-2.496 -0.192,-4.8 -0.096,-2.4 -0.864,-4.608 -1.056,-3.36 -2.688,-7.008 -1.632,-3.648 -2.976,-7.488 -1.248,-3.84 -1.248,-7.776 0,-3.552 1.44,-7.104 1.92,-4.32 5.568,-6.912 3.744,-2.688 8.736,-2.688 1.824,0 3.648,0.576 1.92,0.48 3.264,1.728 1.344,1.248 1.344,3.456 0,1.536 -0.96,2.208 -0.96,0.672 -2.016,0.672 -0.576,0 -0.768,-0.096 l 0.288,-1.92 q 0,-2.4 -1.44,-3.552 -1.344,-1.248 -3.552,-1.248 -2.688,0 -5.28,1.536 -2.592,1.44 -3.84,3.744 -1.92,3.552 -1.92,7.296 0,3.264 1.056,6.432 1.152,3.072 2.688,6.048 1.632,2.88 2.976,5.568 3.84,7.296 3.84,15.264 0,6.912005 -2.88,12.768005 -2.88,5.76 -7.968,9.984 -5.088,4.32 -11.808,6.624 -6.624,2.4 -14.304,2.4 z m 45.12007,-9.12 q -2.4,0 -4.32,-1.344 -1.824,-1.44 -1.824,-4.608 0,-3.36 1.632,-7.392 1.632,-4.032 3.072,-7.2 0.768,-1.536005 2.016,-4.128005 1.344,-2.688 2.88,-5.28 h -4.512 q -0.288,0 -0.288,-0.48 0,-0.384 0.288,-0.768 0.288,-0.48 0.672,-0.48 2.688,0 4.032,-0.48 1.344,-0.48 2.304,-1.344 1.536,-1.344 2.976,-3.456 1.536,-2.112 2.976,-3.648 1.056,-1.344 2.592,-2.016 1.632,-0.672 2.112,-0.48 -0.48,0.672 -1.536,2.304 -1.056,1.632 -2.208,3.552 -1.152,1.92 -2.112,3.552 -0.96,1.632 -1.248,2.208 h 6.336 q 0.288,0 0.288,0.192 0,0.384 -0.48,0.864 -0.384,0.48 -0.768,0.48 h -6.24 q -1.728,2.976 -4.128,7.776 -2.304,4.704005 -4.128,9.120005 -0.384,0.864 -1.344,3.456 -0.864,2.592 -0.864,4.8 0,1.44 0.576,2.4 0.672,0.96 2.208,0.96 1.632,0 3.552,-1.152 1.92,-1.248 2.976,-2.496 2.208,-2.4 4.032,-5.28 1.824,-2.88 3.648,-6.144 0.288,-0.384 0.576,-0.384 0.384,0 0.384,0.576 0,0.48 -0.192,0.768 -1.728,3.168 -3.744,6.336 -1.92,3.168 -4.704,5.952 -1.248,1.248 -3.36,2.304 -2.112,0.96 -4.128,0.96 z m 22.36794,1.248 q -3.648,0 -6.336,-2.304 -2.592,-2.4 -2.592,-7.296 0,-3.072 1.056,-6.336 1.152,-3.36 2.496,-5.952 2.496,-4.704005 6.24,-8.160005 3.84,-3.552 9.12,-3.552 5.088,0 7.104,2.784 2.016,2.784 2.016,6.816 0,1.632005 -0.288,3.360005 -0.768,4.704 -3.168,9.12 0.672,0.96 1.728,1.632 1.152,0.576 2.496,0.576 2.304,0 3.93604,-1.248 1.632,-1.248 2.784,-3.072 1.248,-1.92 2.112,-3.552 0.576,-1.056 1.056,-1.056 0.288,0 0.288,0.384 0,0.384 -0.576,1.728 -1.632,3.264 -3.84,5.664 -2.208,2.4 -5.76004,2.4 -3.264,0 -4.992,-2.304 -2.688,4.416 -6.528,7.392 -3.84,2.976 -8.352,2.976 z m 0.192,-1.152 q 4.704,0 9.312,-4.608 1.344,-1.344 2.4,-2.784 1.152,-1.536 2.016,-3.072 -1.248,-1.44 -1.824,-3.072 -0.48,-1.728 -0.48,-3.264 0,-2.4 0.864,-4.224 0.864,-1.920005 2.4,-1.920005 0.768,0 1.44,0.768 0.768,0.768005 0.96,2.400005 0.288,-1.344 0.288,-2.880005 0,-3.648 -1.344,-5.76 -1.344,-2.208 -4.512,-2.208 -1.92,0 -3.936,1.536 -2.016,1.44 -3.84,3.552 -1.728,2.112 -3.072,4.320005 -1.344,2.208 -2.016,3.648 -1.632,3.552 -2.4,6.336 -0.672,2.784 -0.672,4.896 0,3.072 1.248,4.704 1.344,1.632 3.168,1.632 z m 46.94404,-2.496 q -1.632,1.344 -3.264,1.92 -1.536,0.672 -2.88,0.672 -2.4,0 -4.032,-1.632 -1.536,-1.728 -1.536,-4.512 0,-1.632 0.768,-3.936 1.248,-3.456 3.744,-6.624 2.496,-3.168 4.8,-6.432005 1.44,-1.92 1.44,-3.744 0,-0.96 -0.576,-1.632 -0.48,-0.672 -1.824,-0.768 -0.768,-0.192 -1.728,-0.192 -0.96,0 -1.92,0 h -2.688 q -0.576,0 -1.056,0 -0.48,0 -0.864,-0.096 -0.384,2.4 -1.632,5.376 -1.152,2.976005 -2.688,5.952005 -1.536,2.976 -2.976,5.376 -0.384,0.576 -0.672,0.576 -0.288,0 -0.288,-0.576 0,-0.672 0.288,-1.056 2.016,-3.936 3.84,-7.68 1.92,-3.840005 2.592,-7.968005 -2.208,-1.248 -2.976,-4.32 -0.096,-0.48 -0.192,-0.864 0,-0.48 0,-0.864 0,-1.728 0.672,-2.88 0.768,-1.248 1.728,-1.248 1.344,0 2.208,2.592 0.192,0.672 0.288,1.536 0.096,0.768 0.096,1.536 0,0.864 -0.096,1.632 0,0.672 -0.096,1.152 0.672,0.192 1.728,0.288 1.152,0.096 2.496,0.096 2.016,0 4.224,-0.096 2.208,-0.192 3.744,-0.192 1.824,0 2.496,0.768 0.672,0.768 0.672,1.92 0,1.44 -0.768,3.168 -0.672,1.632 -1.344,2.784 -1.248,2.304005 -2.4,4.128005 -1.056,1.728 -2.4,3.744 -2.016,3.072 -2.976,5.664 -0.864,2.496 -0.864,4.224 0,2.976 2.208,2.976 1.824,0 4.704,-2.592 1.824,-1.632 3.36,-3.84 1.632,-2.304 2.88,-4.608 1.344,-2.4 2.208,-3.936 0.192,-0.288 0.384,-0.288 0.384,0 0.384,0.768 0,0.576 -0.288,1.056 -1.632,2.976 -3.744,6.528 -2.112,3.552 -5.184,6.144 z m 10.5599,2.304 q -2.688,0 -3.936,-1.728 -1.248,-1.824 -1.248,-4.416 0,-0.768 0.096,-1.536 0.192,-0.864 0.384,-1.728 1.056,-3.84 3.264,-8.544 2.304,-4.800005 4.416,-8.544005 1.248,-2.112 2.304,-2.976 1.056,-0.96 2.304,-1.344 1.248,-0.48 2.976,-1.056 0.48,-0.192 0.96,-0.288 0.48,-0.096 1.056,-0.192 -1.92,1.92 -3.936,4.608 -1.92,2.688 -4.224,7.392005 -1.248,2.496 -2.496,5.568 -1.152,3.072 -2.016,5.76 -0.864,2.688 -0.96,4.224 -0.096,1.824 0.48,2.592 0.576,0.768 1.536,0.768 1.632,0 3.072,-1.152 1.536,-1.152 2.688,-2.4 2.112,-2.4 3.936,-5.28 1.92,-2.88 3.744,-6.144 0.288,-0.384 0.48,-0.384 0.384,0 0.384,0.576 0,0.48 -0.192,0.768 -1.728,3.168 -3.648,6.336 -1.92,3.168 -4.704,5.952 -1.248,1.248 -2.976,2.208 -1.632,0.96 -3.744,0.96 z m 11.712,-37.728005 q -1.056,0 -1.824,-0.768 -0.672,-0.768 -0.672,-1.824 0,-1.344 1.056,-2.4 1.152,-1.056 2.496,-1.248 1.056,0 1.728,0.768 0.768,0.672 0.768,1.824 0,1.248 -1.056,2.496 -1.056,1.152 -2.496,1.152 z m 11.3281,37.920005 q -5.568,0 -7.872,-2.88 -1.152,-1.248 -1.632,-2.976 -0.48,-1.728 -0.48,-3.552 0,-2.304 0.576,-4.608 0.576,-2.4 1.44,-4.416 1.344,-3.168 3.552,-6.336005 2.208,-3.264 5.28,-5.472 3.168,-2.208 6.912,-2.208 2.496,0 3.936,1.248 1.44,1.248 1.44,3.84 0,2.976 -1.824,6.048005 -1.824,2.976 -4.608,4.992 -2.784,2.016 -5.76,2.016 -2.688,0 -4.704,-1.92 -0.576,1.536 -0.96,3.456 -0.384,1.824 -0.384,3.744 0,2.976 1.152,5.184 1.248,2.208 4.416,2.208 2.304,0 4.416,-1.152 2.208,-1.248 3.936,-2.976 1.92,-2.016 3.648,-4.32 1.728,-2.304 3.36,-5.376 0.192,-0.288 0.288,-0.288 0.384,0 0.384,0.864 0,0.576 -0.384,1.248 -1.44,2.592 -3.36,5.28 -1.92,2.592 -3.936,4.512 -1.824,1.728 -3.936,2.784 -2.112,1.056 -4.896,1.056 z m -3.264,-17.664 q 0.672,0.96 1.536,1.44 0.96,0.384 1.92,0.384 2.304,0 4.8,-1.728 2.496,-1.824 4.032,-4.224005 0.672,-1.056 1.152,-2.784 0.576,-1.728 0.576,-3.264 0,-1.344 -0.576,-2.304 -0.48,-1.056 -2.016,-1.056 -1.728,0 -4.128,2.112 -2.304,2.112 -4.416,5.472 -0.672,1.152 -1.536,2.688005 -0.768,1.536 -1.344,3.264 z m 21.7919,17.664 q -2.016,0 -3.744,-0.768 -1.632,-0.864 -2.688,-2.88 -0.768,-1.728 -0.768,-3.744 0,-2.112 0.768,-3.936 0.768,-1.632 1.728,-2.88 0.96,-1.248 2.112,-1.44 0.864,-1.92 2.592,-5.088 1.824,-3.168005 4.032,-6.336005 2.304,-3.168 4.32,-5.088 0.48,-0.48 1.632,-1.536 1.248,-1.152 2.784,-2.208 1.632,-1.056 2.976,-1.248 0.288,-0.096 0.768,-0.096 1.152,0 1.728,0.576 0.576,0.576 0.576,1.344 0,0.768 -0.576,1.536 -0.576,0.768 -1.824,1.248 -0.48,0.096 -1.44,0.288 -0.864,0.192 -2.592,0.192 -0.672,0.96 -0.672,2.688 0,1.92 0.576,4.32 0.672,2.4 1.248,4.704005 0.672,2.208 0.672,3.744 0.192,3.552 -1.152,7.2 -1.248,3.552 -4.032,6.048 l -1.344,0.96 q 0.288,0.096 0.576,0.192 0.288,0 0.576,0 1.632,0 3.648,-0.96 2.016,-1.056 3.552,-2.592 2.304,-2.208 3.936,-4.704 1.728,-2.496 3.168,-5.184 0.096,-0.384 0.48,-0.384 0.48,0 0.48,0.768 0,0.384 -0.288,0.864 -1.44,2.688 -3.552,5.664 -2.016,2.88 -4.224,4.896 -1.728,1.536 -3.744,2.304 -1.92,0.672 -3.264,0.672 -0.96,0 -1.536,-0.192 -0.576,-0.192 -1.056,-0.576 -1.344,0.672 -3.072,1.152 -1.632,0.48 -3.36,0.48 z m 3.648,-2.496 q 1.92,-1.344 2.976,-3.456 1.152,-2.112 1.728,-4.512 0.768,-2.88 0.864,-5.952 0.192,-3.072 0.192,-5.568005 v -3.36 q 0,-2.016 0.48,-4.128 0.576,-2.112 1.152,-2.592 -1.44,0.576 -3.168,2.592 -1.728,1.92 -3.456,4.608 -1.728,2.592 -3.168,5.088005 -1.344,2.496 -2.112,4.128 1.824,-0.096 2.496,1.056 0.672,1.056 0.384,1.536 -0.768,-0.192 -1.056,-0.192 -1.44,0 -2.688,1.056 -1.248,0.96 -2.112,2.88 -0.864,1.824 -0.864,3.552 0,2.304 1.344,3.36 1.344,1.056 3.168,1.056 2.112,0 3.84,-1.152 z"
       id="text2"
       style="font-size:96px;font-family:MonteCarlo;-inkscape-font-specification:MonteCarlo;white-space:pre;fill:#f8e1c0;stroke-width:1.32283"
       transform="matrix(0.26457576,0,0,0.26718363,-149.2769,-2.2859906)"
       aria-label="Unveiled Stories" /><g
       id="g1"
       transform="matrix(0.96774198,0,0,1,-14.19355,-17.3)"><rect
         style="fill:url(#linearGradient7);stroke:#ffffff;stroke-width:0;stroke-dasharray:none;stroke-opacity:0"
         id="rect6"
         width="60"
         height="0.40000001"
         x="25"
         y="54.299999" /><rect
         style="fill:url(#linearGradient8);stroke:#ffffff;stroke-width:0;stroke-dasharray:none;stroke-opacity:0"
         id="rect6-6"
         width="60"
         height="0.40000001"
         x="-161.39999"
         y="54.299999"
         transform="scale(-1,1)" /><circle
         style="fill:url(#radialGradient16);fill-opacity:1;stroke:#ebead8;stroke-width:0;stroke-dasharray:none;stroke-opacity:1"
         id="path9"
         cx="93.199997"
         cy="54.5"
         r="1.2" /></g></g></svg>
